<?xml version="1.0" encoding="utf-8"?><svg xmlns="http://www.w3.org/2000/svg" viewBox="0 0 35.13 35.08"><defs><style>.cls-1{fill:#fff;}</style></defs><title>icon2-white</title><g id="Layer_2" data-name="Layer 2"><g id="Layer_1-2" data-name="Layer 1"><path class="cls-1" d="M0,4H4V0A4,4,0,0,0,0,4Z"/><rect class="cls-1" x="7.76" width="4.01" height="4.01"/><rect class="cls-1" x="15.56" width="4.01" height="4.01"/><rect class="cls-1" x="23.37" width="4.01" height="4.01"/><path class="cls-1" d="M31.13,0V4h4A4,4,0,0,0,31.13,0Z"/><path class="cls-1" d="M0,31.07a4,4,0,0,0,4,4v-4H0Z"/><rect class="cls-1" x="7.76" y="31.07" width="4.01" height="4.01"/><rect class="cls-1" x="15.56" y="31.07" width="4.01" height="4.01"/><rect class="cls-1" x="23.37" y="31.07" width="4.01" height="4.01"/><path class="cls-1" d="M31.13,35.08a4,4,0,0,0,4-4h-4Z"/><rect class="cls-1" x="31.13" y="7.73" width="4.01" height="4.01"/><rect class="cls-1" x="31.13" y="15.53" width="4.01" height="4.01"/><rect class="cls-1" x="31.13" y="23.34" width="4.01" height="4.01"/><rect class="cls-1" y="7.73" width="4.01" height="4.01"/><rect class="cls-1" y="15.53" width="4.01" height="4.01"/><rect class="cls-1" y="23.34" width="4.01" height="4.01"/><path class="cls-1" d="M7.76,27.35H27.37V7.73H7.76Zm4-15.61h11.6v11.6H11.77Z"/></g></g></svg>